<svg height="24" viewBox="0 0 24 24" width="24" xmlns="http://www.w3.org/2000/svg"><path d="m14.8077886 16.2116625 3.5110686 3.5110514c.3899782.3899763 1.0123945.3888324 1.4025615-.0013327.3909439-.390942.3904106-1.0134789.0013328-1.4025548l-3.5110686-3.5110514zm-1.6617681 1.1460149c-.9656482.4134325-2.0291043.6423226-3.1460205.6423226-4.418278 0-8-3.581722-8-8s3.581722-8 8-8 8 3.581722 8 8c0 1.1169077-.2288866 2.1803561-.6423131 3.1459984l3.7689589 3.7689405c1.1638892 1.1638836 1.1654995 3.0435032-.0013327 4.2103298-1.1643638 1.164358-3.0438652 1.1678121-4.2103502.0013327zm-3.1460205-1.3576774c3.3137085 0 6-2.6862915 6-6s-2.6862915-6-6-6-6 2.6862915-6 6 2.6862915 6 6 6z" fill="#706fe5"/></svg>